<svg width="4403" height="2482" xmlns="http://www.w3.org/2000/svg" xmlns:xlink="http://www.w3.org/1999/xlink" xml:space="preserve" overflow="hidden"><defs><filter id="fx0" x="-10%" y="-10%" width="120%" height="120%" filterUnits="userSpaceOnUse" primitiveUnits="userSpaceOnUse"><feComponentTransfer color-interpolation-filters="sRGB"><feFuncR type="discrete" tableValues="0.65098 0.65098"/><feFuncG type="discrete" tableValues="0.65098 0.65098"/><feFuncB type="discrete" tableValues="0.65098 0.65098"/><feFuncA type="linear" slope="0.4" intercept="0"/></feComponentTransfer><feGaussianBlur stdDeviation="6.11111 6.11111"/></filter><filter id="fx1" x="-10%" y="-10%" width="120%" height="120%" filterUnits="userSpaceOnUse" primitiveUnits="userSpaceOnUse"><feComponentTransfer color-interpolation-filters="sRGB"><feFuncR type="discrete" tableValues="0.65098 0.65098"/><feFuncG type="discrete" tableValues="0.65098 0.65098"/><feFuncB type="discrete" tableValues="0.65098 0.65098"/><feFuncA type="linear" slope="0.4" intercept="0"/></feComponentTransfer><feGaussianBlur stdDeviation="6.11111 6.11111"/></filter><filter id="fx2" x="-10%" y="-10%" width="120%" height="120%" filterUnits="userSpaceOnUse" primitiveUnits="userSpaceOnUse"><feComponentTransfer color-interpolation-filters="sRGB"><feFuncR type="discrete" tableValues="0.65098 0.65098"/><feFuncG type="discrete" tableValues="0.65098 0.65098"/><feFuncB type="discrete" tableValues="0.65098 0.65098"/><feFuncA type="linear" slope="0.4" intercept="0"/></feComponentTransfer><feGaussianBlur stdDeviation="6.11111 6.11111"/></filter><filter id="fx3" x="-10%" y="-10%" width="120%" height="120%" filterUnits="userSpaceOnUse" primitiveUnits="userSpaceOnUse"><feComponentTransfer color-interpolation-filters="sRGB"><feFuncR type="discrete" tableValues="0.65098 0.65098"/><feFuncG type="discrete" tableValues="0.65098 0.65098"/><feFuncB type="discrete" tableValues="0.65098 0.65098"/><feFuncA type="linear" slope="0.4" intercept="0"/></feComponentTransfer><feGaussianBlur stdDeviation="6.11111 6.11111"/></filter><filter id="fx4" x="-10%" y="-10%" width="120%" height="120%" filterUnits="userSpaceOnUse" primitiveUnits="userSpaceOnUse"><feComponentTransfer color-interpolation-filters="sRGB"><feFuncR type="discrete" tableValues="0.65098 0.65098"/><feFuncG type="discrete" tableValues="0.65098 0.65098"/><feFuncB type="discrete" tableValues="0.65098 0.65098"/><feFuncA type="linear" slope="0.4" intercept="0"/></feComponentTransfer><feGaussianBlur stdDeviation="6.11111 6.11111"/></filter><filter id="fx5" x="-10%" y="-10%" width="120%" height="120%" filterUnits="userSpaceOnUse" primitiveUnits="userSpaceOnUse"><feComponentTransfer color-interpolation-filters="sRGB"><feFuncR type="discrete" tableValues="0.65098 0.65098"/><feFuncG type="discrete" tableValues="0.65098 0.65098"/><feFuncB type="discrete" tableValues="0.65098 0.65098"/><feFuncA type="linear" slope="0.4" intercept="0"/></feComponentTransfer><feGaussianBlur stdDeviation="6.11111 6.11111"/></filter><filter id="fx6" x="-10%" y="-10%" width="120%" height="120%" filterUnits="userSpaceOnUse" primitiveUnits="userSpaceOnUse"><feComponentTransfer color-interpolation-filters="sRGB"><feFuncR type="discrete" tableValues="0.65098 0.65098"/><feFuncG type="discrete" tableValues="0.65098 0.65098"/><feFuncB type="discrete" tableValues="0.65098 0.65098"/><feFuncA type="linear" slope="0.4" intercept="0"/></feComponentTransfer><feGaussianBlur stdDeviation="6.11111 6.11111"/></filter><filter id="fx7" x="-10%" y="-10%" width="120%" height="120%" filterUnits="userSpaceOnUse" primitiveUnits="userSpaceOnUse"><feComponentTransfer color-interpolation-filters="sRGB"><feFuncR type="discrete" tableValues="0.65098 0.65098"/><feFuncG type="discrete" tableValues="0.65098 0.65098"/><feFuncB type="discrete" tableValues="0.65098 0.65098"/><feFuncA type="linear" slope="0.4" intercept="0"/></feComponentTransfer><feGaussianBlur stdDeviation="6.11111 6.11111"/></filter><filter id="fx8" x="-10%" y="-10%" width="120%" height="120%" filterUnits="userSpaceOnUse" primitiveUnits="userSpaceOnUse"><feComponentTransfer color-interpolation-filters="sRGB"><feFuncR type="discrete" tableValues="0.65098 0.65098"/><feFuncG type="discrete" tableValues="0.65098 0.65098"/><feFuncB type="discrete" tableValues="0.65098 0.65098"/><feFuncA type="linear" slope="0.4" intercept="0"/></feComponentTransfer><feGaussianBlur stdDeviation="6.11111 6.11111"/></filter><filter id="fx9" x="-10%" y="-10%" width="120%" height="120%" filterUnits="userSpaceOnUse" primitiveUnits="userSpaceOnUse"><feComponentTransfer color-interpolation-filters="sRGB"><feFuncR type="discrete" tableValues="0.65098 0.65098"/><feFuncG type="discrete" tableValues="0.65098 0.65098"/><feFuncB type="discrete" tableValues="0.65098 0.65098"/><feFuncA type="linear" slope="0.4" intercept="0"/></feComponentTransfer><feGaussianBlur stdDeviation="6.11111 6.11111"/></filter><filter id="fx10" x="-10%" y="-10%" width="120%" height="120%" filterUnits="userSpaceOnUse" primitiveUnits="userSpaceOnUse"><feComponentTransfer color-interpolation-filters="sRGB"><feFuncR type="discrete" tableValues="0.65098 0.65098"/><feFuncG type="discrete" tableValues="0.65098 0.65098"/><feFuncB type="discrete" tableValues="0.65098 0.65098"/><feFuncA type="linear" slope="0.4" intercept="0"/></feComponentTransfer><feGaussianBlur stdDeviation="6.11111 6.11111"/></filter><clipPath id="clip11"><rect x="52" y="56" width="80" height="89"/></clipPath><clipPath id="clip12"><rect x="52" y="56" width="80" height="89"/></clipPath><clipPath id="clip13"><rect x="49" y="56" width="83" height="89"/></clipPath><clipPath id="clip14"><rect x="49" y="56" width="83" height="89"/></clipPath><clipPath id="clip15"><rect x="49" y="56" width="83" height="89"/></clipPath></defs><g transform="translate(3 3)"><rect x="0" y="0" width="4400" height="2475" fill="#F2F2F2"/><path d="M0.499836 49.4829C0.499836 22.4303 22.4303 0.499836 49.4829 0.499836L697.517 0.499836C724.57 0.499836 746.5 22.4303 746.5 49.4829L746.5 2426.52C746.5 2453.57 724.57 2475.5 697.517 2475.5L49.4829 2475.5C22.4303 2475.5 0.499836 2453.57 0.499836 2426.52Z" stroke="#042433" stroke-width="6.875" stroke-miterlimit="8" fill="#002060" fill-rule="evenodd"/><g filter="url(#fx0)" transform="translate(812 21)"><g><path d="M19.7226 61.556C19.7226 38.4521 38.4518 19.7227 61.5554 19.7227L3478.89 19.7227C3501.99 19.7227 3520.72 38.4521 3520.72 61.556L3520.72 228.889C3520.72 251.993 3501.99 270.723 3478.89 270.723L61.5554 270.723C38.4518 270.723 19.7226 251.993 19.7226 228.889Z" fill="#FFFFFF" fill-rule="evenodd"/></g></g><path d="M822 72.8333C822 49.7294 840.729 30.9999 863.833 30.9999L4281.17 30.9999C4304.27 30.9999 4323 49.7294 4323 72.8333L4323 240.167C4323 263.27 4304.27 282 4281.17 282L863.833 282C840.729 282 822 263.27 822 240.167Z" fill="#FFFFFF" fill-rule="evenodd"/><g filter="url(#fx1)" transform="translate(812 354)"><g><path d="M19.7226 98.391C19.7226 54.9437 54.9435 19.7227 98.3908 19.7227L1053.05 19.7227C1096.5 19.7227 1131.72 54.9437 1131.72 98.391L1131.72 413.054C1131.72 456.502 1096.5 491.723 1053.05 491.723L98.3908 491.723C54.9435 491.723 19.7226 456.502 19.7226 413.054Z" fill="#FFFFFF" fill-rule="evenodd"/></g></g><g clip-path="url(#clip11)" filter="url(#fx2)" transform="translate(1296 516)"><g><path d="M22.5737 0.688965C19.0073 0.688965 15.8462-0.0607911 13.0903-1.5603 10.3345-3.05981 8.17977-5.31584 6.62622-8.32837 5.07267-11.3409 4.2959-15.1167 4.2959-19.6558 4.2959-24.1948 5.05916-27.9841 6.58569-31.0237 8.11222-34.0632 10.2467-36.3463 12.989-37.8728 15.7314-39.3993 18.9263-40.1626 22.5737-40.1626 25.6268-40.1626 28.3759-39.6628 30.821-38.6631 33.2662-37.6634 35.2183-36.1571 36.6772-34.1443 38.1362-32.1314 38.9062-29.585 38.9873-26.5049L32.3003-26.5049C32.1382-29.0446 31.2196-31.0439 29.5444-32.5029 27.8693-33.9619 25.5863-34.6914 22.6953-34.6914 18.8587-34.6914 15.9948-33.3743 14.1035-30.74 12.2122-28.1057 11.2666-24.411 11.2666-19.6558 11.2666-16.4946 11.6854-13.8131 12.5229-11.6111 13.3605-9.4091 14.6304-7.72046 16.3325-6.54517 18.0347-5.36987 20.1556-4.78223 22.6953-4.78223 25.5863-4.78223 27.9368-5.53198 29.7471-7.03149 31.5573-8.531 32.5029-10.7262 32.584-13.6172L39.271-13.6172C39.1899-10.429 38.4132-7.77449 36.9407-5.65356 35.4682-3.53263 33.4823-1.94531 30.9832-0.891602 28.484 0.162109 25.6808 0.688965 22.5737 0.688965Z" fill="#FFFFFF" transform="matrix(1 0 0 1 69.7018 121)"/></g></g><path d="M822 442.668C822 399.221 857.221 364 900.668 364L1855.33 364C1898.78 364 1934 399.221 1934 442.668L1934 757.332C1934 800.779 1898.78 836 1855.33 836L900.668 836C857.221 836 822 800.779 822 757.332Z" fill="#FFFFFF" fill-rule="evenodd"/><text fill="#FFFFFF" font-family="Aptos,Aptos_MSFontService,sans-serif" font-weight="400" font-size="83" transform="matrix(1 0 0 1 1355.98 627)">c</text><g filter="url(#fx3)" transform="translate(2007 354)"><g><path d="M19.7229 98.391C19.7229 54.9437 54.9438 19.7227 98.3911 19.7227L1053.05 19.7227C1096.5 19.7227 1131.72 54.9437 1131.72 98.391L1131.72 413.054C1131.72 456.502 1096.5 491.723 1053.05 491.723L98.3911 491.723C54.9438 491.723 19.7229 456.502 19.7229 413.054Z" fill="#FFFFFF" fill-rule="evenodd"/></g></g><g clip-path="url(#clip12)" filter="url(#fx4)" transform="translate(2491 516)"><g><path d="M22.5737 0.688965C19.0073 0.688965 15.8462-0.0607911 13.0903-1.5603 10.3345-3.05981 8.17977-5.31584 6.62622-8.32837 5.07267-11.3409 4.2959-15.1167 4.2959-19.6558 4.2959-24.1948 5.05916-27.9841 6.58569-31.0237 8.11222-34.0632 10.2467-36.3463 12.989-37.8728 15.7314-39.3993 18.9263-40.1626 22.5737-40.1626 25.6268-40.1626 28.3759-39.6628 30.821-38.6631 33.2662-37.6634 35.2183-36.1571 36.6772-34.1443 38.1362-32.1314 38.9062-29.585 38.9873-26.5049L32.3003-26.5049C32.1382-29.0446 31.2196-31.0439 29.5444-32.5029 27.8693-33.9619 25.5863-34.6914 22.6953-34.6914 18.8587-34.6914 15.9948-33.3743 14.1035-30.74 12.2122-28.1057 11.2666-24.411 11.2666-19.6558 11.2666-16.4946 11.6854-13.8131 12.5229-11.6111 13.3605-9.4091 14.6304-7.72046 16.3325-6.54517 18.0347-5.36987 20.1556-4.78223 22.6953-4.78223 25.5863-4.78223 27.9368-5.53198 29.7471-7.03149 31.5573-8.531 32.5029-10.7262 32.584-13.6172L39.271-13.6172C39.1899-10.429 38.4132-7.77449 36.9407-5.65356 35.4682-3.53263 33.4823-1.94531 30.9832-0.891602 28.484 0.162109 25.6808 0.688965 22.5737 0.688965Z" fill="#FFFFFF" transform="matrix(1 0 0 1 69.8518 121)"/></g></g><path d="M2017 442.668C2017 399.221 2052.22 364 2095.67 364L3050.33 364C3093.78 364 3129 399.221 3129 442.668L3129 757.332C3129 800.779 3093.78 836 3050.33 836L2095.67 836C2052.22 836 2017 800.779 2017 757.332Z" fill="#FFFFFF" fill-rule="evenodd"/><text fill="#FFFFFF" font-family="Aptos,Aptos_MSFontService,sans-serif" font-weight="400" font-size="83" transform="matrix(1 0 0 1 2551.13 627)">c</text><g filter="url(#fx5)" transform="translate(3202 354)"><g><path d="M19.7227 98.391C19.7227 54.9437 54.9436 19.7227 98.3908 19.7227L1053.05 19.7227C1096.5 19.7227 1131.72 54.9437 1131.72 98.391L1131.72 413.054C1131.72 456.502 1096.5 491.723 1053.05 491.723L98.3908 491.723C54.9436 491.723 19.7227 456.502 19.7227 413.054Z" fill="#FFFFFF" fill-rule="evenodd"/></g></g><g clip-path="url(#clip13)" filter="url(#fx6)" transform="translate(3687 516)"><g><path d="M22.5737 0.688965C19.0073 0.688965 15.8462-0.0607911 13.0903-1.5603 10.3345-3.05981 8.17977-5.31584 6.62622-8.32837 5.07267-11.3409 4.2959-15.1167 4.2959-19.6558 4.2959-24.1948 5.05916-27.9841 6.58569-31.0237 8.11222-34.0632 10.2467-36.3463 12.989-37.8728 15.7314-39.3993 18.9263-40.1626 22.5737-40.1626 25.6268-40.1626 28.3759-39.6628 30.821-38.6631 33.2662-37.6634 35.2183-36.1571 36.6772-34.1443 38.1362-32.1314 38.9062-29.585 38.9873-26.5049L32.3003-26.5049C32.1382-29.0446 31.2196-31.0439 29.5444-32.5029 27.8693-33.9619 25.5863-34.6914 22.6953-34.6914 18.8587-34.6914 15.9948-33.3743 14.1035-30.74 12.2122-28.1057 11.2666-24.411 11.2666-19.6558 11.2666-16.4946 11.6854-13.8131 12.5229-11.6111 13.3605-9.4091 14.6304-7.72046 16.3325-6.54517 18.0347-5.36987 20.1556-4.78223 22.6953-4.78223 25.5863-4.78223 27.9368-5.53198 29.7471-7.03149 31.5573-8.531 32.5029-10.7262 32.584-13.6172L39.271-13.6172C39.1899-10.429 38.4132-7.77449 36.9407-5.65356 35.4682-3.53263 33.4823-1.94531 30.9832-0.891602 28.484 0.162109 25.6808 0.688965 22.5737 0.688965Z" fill="#FFFFFF" transform="matrix(1 0 0 1 69.0017 121)"/></g></g><path d="M3212 442.668C3212 399.221 3247.22 364 3290.67 364L4245.33 364C4288.78 364 4324 399.221 4324 442.668L4324 757.332C4324 800.779 4288.78 836 4245.33 836L3290.67 836C3247.22 836 3212 800.779 3212 757.332Z" fill="#FFFFFF" fill-rule="evenodd"/><text fill="#FFFFFF" font-family="Aptos,Aptos_MSFontService,sans-serif" font-weight="400" font-size="83" transform="matrix(1 0 0 1 3746.28 627)">c</text><g filter="url(#fx7)" transform="translate(815 909)"><g><path d="M19.7227 132.391C19.7227 70.1657 70.1656 19.7225 132.39 19.7225L3405.06 19.7225C3467.28 19.7225 3517.72 70.1657 3517.72 132.391L3517.72 583.055C3517.72 645.28 3467.28 695.723 3405.06 695.723L132.39 695.723C70.1656 695.723 19.7227 645.28 19.7227 583.055Z" fill="#FFFFFF" fill-rule="evenodd"/></g></g><g clip-path="url(#clip14)" filter="url(#fx8)" transform="translate(2493 1172)"><g><path d="M22.5737 0.688965C19.0073 0.688965 15.8462-0.0607911 13.0903-1.5603 10.3345-3.05981 8.17977-5.31584 6.62622-8.32837 5.07267-11.3409 4.2959-15.1167 4.2959-19.6558 4.2959-24.1948 5.05916-27.9841 6.58569-31.0237 8.11222-34.0632 10.2467-36.3463 12.989-37.8728 15.7314-39.3993 18.9263-40.1626 22.5737-40.1626 25.6268-40.1626 28.3759-39.6628 30.821-38.6631 33.2662-37.6634 35.2183-36.1571 36.6772-34.1443 38.1362-32.1314 38.9062-29.585 38.9873-26.5049L32.3003-26.5049C32.1382-29.0446 31.2196-31.0439 29.5444-32.5029 27.8693-33.9619 25.5863-34.6914 22.6953-34.6914 18.8587-34.6914 15.9948-33.3743 14.1035-30.74 12.2122-28.1057 11.2666-24.411 11.2666-19.6558 11.2666-16.4946 11.6854-13.8131 12.5229-11.6111 13.3605-9.4091 14.6304-7.72046 16.3325-6.54517 18.0347-5.36987 20.1556-4.78223 22.6953-4.78223 25.5863-4.78223 27.9368-5.53198 29.7471-7.03149 31.5573-8.531 32.5029-10.7262 32.584-13.6172L39.271-13.6172C39.1899-10.429 38.4132-7.77449 36.9407-5.65356 35.4682-3.53263 33.4823-1.94531 30.9832-0.891602 28.484 0.162109 25.6808 0.688965 22.5737 0.688965Z" fill="#FFFFFF" transform="matrix(1 0 0 1 69.0891 121)"/></g></g><path d="M825 1031.67C825 969.443 875.443 919 937.667 919L4210.33 919C4272.56 919 4323 969.443 4323 1031.67L4323 1482.33C4323 1544.56 4272.56 1595 4210.33 1595L937.667 1595C875.443 1595 825 1544.56 825 1482.33Z" fill="#FFFFFF" fill-rule="evenodd"/><text fill="#FFFFFF" font-family="Aptos,Aptos_MSFontService,sans-serif" font-weight="400" font-size="83" transform="matrix(1 0 0 1 2552.37 1283)">c</text><g filter="url(#fx9)" transform="translate(815 1643)"><g><path d="M19.7227 147.057C19.7227 76.7324 76.7322 19.7228 147.057 19.7228L3390.39 19.7228C3460.71 19.7228 3517.72 76.7324 3517.72 147.057L3517.72 656.388C3517.72 726.713 3460.71 783.723 3390.39 783.723L147.057 783.723C76.7322 783.723 19.7227 726.713 19.7227 656.388Z" fill="#FFFFFF" fill-rule="evenodd"/></g></g><g clip-path="url(#clip15)" filter="url(#fx10)" transform="translate(2493 1951)"><g><path d="M22.5737 0.688965C19.0073 0.688965 15.8462-0.0607911 13.0903-1.5603 10.3345-3.05981 8.17977-5.31584 6.62622-8.32837 5.07267-11.3409 4.2959-15.1167 4.2959-19.6558 4.2959-24.1948 5.05916-27.9841 6.58569-31.0237 8.11222-34.0632 10.2467-36.3463 12.989-37.8728 15.7314-39.3993 18.9263-40.1626 22.5737-40.1626 25.6268-40.1626 28.3759-39.6628 30.821-38.6631 33.2662-37.6634 35.2183-36.1571 36.6772-34.1443 38.1362-32.1314 38.9062-29.585 38.9873-26.5049L32.3003-26.5049C32.1382-29.0446 31.2196-31.0439 29.5444-32.5029 27.8693-33.9619 25.5863-34.6914 22.6953-34.6914 18.8587-34.6914 15.9948-33.3743 14.1035-30.74 12.2122-28.1057 11.2666-24.411 11.2666-19.6558 11.2666-16.4946 11.6854-13.8131 12.5229-11.6111 13.3605-9.4091 14.6304-7.72046 16.3325-6.54517 18.0347-5.36987 20.1556-4.78223 22.6953-4.78223 25.5863-4.78223 27.9368-5.53198 29.7471-7.03149 31.5573-8.531 32.5029-10.7262 32.584-13.6172L39.271-13.6172C39.1899-10.429 38.4132-7.77449 36.9407-5.65356 35.4682-3.53263 33.4823-1.94531 30.9832-0.891602 28.484 0.162109 25.6808 0.688965 22.5737 0.688965Z" fill="#FFFFFF" transform="matrix(1 0 0 1 69.0891 120)"/></g></g><path d="M825 1780.33C825 1710.01 882.009 1653 952.334 1653L4195.67 1653C4265.99 1653 4323 1710.01 4323 1780.33L4323 2289.67C4323 2359.99 4265.99 2417 4195.67 2417L952.334 2417C882.009 2417 825 2359.99 825 2289.67Z" fill="#FFFFFF" fill-rule="evenodd"/><text fill="#FFFFFF" font-family="Aptos,Aptos_MSFontService,sans-serif" font-weight="400" font-size="83" transform="matrix(1 0 0 1 2552.37 2062)">c</text></g></svg>