<svg width="4403" height="2482" xmlns="http://www.w3.org/2000/svg" xmlns:xlink="http://www.w3.org/1999/xlink" xml:space="preserve" overflow="hidden"><defs><filter id="fx0" x="-10%" y="-10%" width="120%" height="120%" filterUnits="userSpaceOnUse" primitiveUnits="userSpaceOnUse"><feComponentTransfer color-interpolation-filters="sRGB"><feFuncR type="discrete" tableValues="0.65098 0.65098"/><feFuncG type="discrete" tableValues="0.65098 0.65098"/><feFuncB type="discrete" tableValues="0.65098 0.65098"/><feFuncA type="linear" slope="0.4" intercept="0"/></feComponentTransfer><feGaussianBlur stdDeviation="6.11111 6.11111"/></filter><filter id="fx1" x="-10%" y="-10%" width="120%" height="120%" filterUnits="userSpaceOnUse" primitiveUnits="userSpaceOnUse"><feComponentTransfer color-interpolation-filters="sRGB"><feFuncR type="discrete" tableValues="0.65098 0.65098"/><feFuncG type="discrete" tableValues="0.65098 0.65098"/><feFuncB type="discrete" tableValues="0.65098 0.65098"/><feFuncA type="linear" slope="0.4" intercept="0"/></feComponentTransfer><feGaussianBlur stdDeviation="6.11111 6.11111"/></filter><filter id="fx2" x="-10%" y="-10%" width="120%" height="120%" filterUnits="userSpaceOnUse" primitiveUnits="userSpaceOnUse"><feComponentTransfer color-interpolation-filters="sRGB"><feFuncR type="discrete" tableValues="0.65098 0.65098"/><feFuncG type="discrete" tableValues="0.65098 0.65098"/><feFuncB type="discrete" tableValues="0.65098 0.65098"/><feFuncA type="linear" slope="0.4" intercept="0"/></feComponentTransfer><feGaussianBlur stdDeviation="6.11111 6.11111"/></filter><filter id="fx3" x="-10%" y="-10%" width="120%" height="120%" filterUnits="userSpaceOnUse" primitiveUnits="userSpaceOnUse"><feComponentTransfer color-interpolation-filters="sRGB"><feFuncR type="discrete" tableValues="0.65098 0.65098"/><feFuncG type="discrete" tableValues="0.65098 0.65098"/><feFuncB type="discrete" tableValues="0.65098 0.65098"/><feFuncA type="linear" slope="0.4" intercept="0"/></feComponentTransfer><feGaussianBlur stdDeviation="6.11111 6.11111"/></filter><filter id="fx4" x="-10%" y="-10%" width="120%" height="120%" filterUnits="userSpaceOnUse" primitiveUnits="userSpaceOnUse"><feComponentTransfer color-interpolation-filters="sRGB"><feFuncR type="discrete" tableValues="0.65098 0.65098"/><feFuncG type="discrete" tableValues="0.65098 0.65098"/><feFuncB type="discrete" tableValues="0.65098 0.65098"/><feFuncA type="linear" slope="0.4" intercept="0"/></feComponentTransfer><feGaussianBlur stdDeviation="6.11111 6.11111"/></filter><filter id="fx5" x="-10%" y="-10%" width="120%" height="120%" filterUnits="userSpaceOnUse" primitiveUnits="userSpaceOnUse"><feComponentTransfer color-interpolation-filters="sRGB"><feFuncR type="discrete" tableValues="0.65098 0.65098"/><feFuncG type="discrete" tableValues="0.65098 0.65098"/><feFuncB type="discrete" tableValues="0.65098 0.65098"/><feFuncA type="linear" slope="0.4" intercept="0"/></feComponentTransfer><feGaussianBlur stdDeviation="6.11111 6.11111"/></filter><filter id="fx6" x="-10%" y="-10%" width="120%" height="120%" filterUnits="userSpaceOnUse" primitiveUnits="userSpaceOnUse"><feComponentTransfer color-interpolation-filters="sRGB"><feFuncR type="discrete" tableValues="0.65098 0.65098"/><feFuncG type="discrete" tableValues="0.65098 0.65098"/><feFuncB type="discrete" tableValues="0.65098 0.65098"/><feFuncA type="linear" slope="0.4" intercept="0"/></feComponentTransfer><feGaussianBlur stdDeviation="6.11111 6.11111"/></filter><filter id="fx7" x="-10%" y="-10%" width="120%" height="120%" filterUnits="userSpaceOnUse" primitiveUnits="userSpaceOnUse"><feComponentTransfer color-interpolation-filters="sRGB"><feFuncR type="discrete" tableValues="0.65098 0.65098"/><feFuncG type="discrete" tableValues="0.65098 0.65098"/><feFuncB type="discrete" tableValues="0.65098 0.65098"/><feFuncA type="linear" slope="0.4" intercept="0"/></feComponentTransfer><feGaussianBlur stdDeviation="6.11111 6.11111"/></filter><filter id="fx8" x="-10%" y="-10%" width="120%" height="120%" filterUnits="userSpaceOnUse" primitiveUnits="userSpaceOnUse"><feComponentTransfer color-interpolation-filters="sRGB"><feFuncR type="discrete" tableValues="0.65098 0.65098"/><feFuncG type="discrete" tableValues="0.65098 0.65098"/><feFuncB type="discrete" tableValues="0.65098 0.65098"/><feFuncA type="linear" slope="0.4" intercept="0"/></feComponentTransfer><feGaussianBlur stdDeviation="6.11111 6.11111"/></filter><filter id="fx9" x="-10%" y="-10%" width="120%" height="120%" filterUnits="userSpaceOnUse" primitiveUnits="userSpaceOnUse"><feComponentTransfer color-interpolation-filters="sRGB"><feFuncR type="discrete" tableValues="0.65098 0.65098"/><feFuncG type="discrete" tableValues="0.65098 0.65098"/><feFuncB type="discrete" tableValues="0.65098 0.65098"/><feFuncA type="linear" slope="0.4" intercept="0"/></feComponentTransfer><feGaussianBlur stdDeviation="6.11111 6.11111"/></filter><filter id="fx10" x="-10%" y="-10%" width="120%" height="120%" filterUnits="userSpaceOnUse" primitiveUnits="userSpaceOnUse"><feComponentTransfer color-interpolation-filters="sRGB"><feFuncR type="discrete" tableValues="0.65098 0.65098"/><feFuncG type="discrete" tableValues="0.65098 0.65098"/><feFuncB type="discrete" tableValues="0.65098 0.65098"/><feFuncA type="linear" slope="0.4" intercept="0"/></feComponentTransfer><feGaussianBlur stdDeviation="6.11111 6.11111"/></filter><clipPath id="clip11"><rect x="49" y="56" width="83" height="89"/></clipPath><clipPath id="clip12"><rect x="52" y="56" width="80" height="89"/></clipPath><clipPath id="clip13"><rect x="49" y="56" width="83" height="89"/></clipPath><clipPath id="clip14"><rect x="49" y="56" width="83" height="89"/></clipPath><clipPath id="clip15"><rect x="52" y="56" width="80" height="89"/></clipPath></defs><g transform="translate(3 3)"><rect x="0" y="0" width="4400" height="2475" fill="#F2F2F2"/><path d="M0.499836 49.4829C0.499836 22.4303 22.4303 0.499836 49.4829 0.499836L697.517 0.499836C724.57 0.499836 746.5 22.4303 746.5 49.4829L746.5 2426.52C746.5 2453.57 724.57 2475.5 697.517 2475.5L49.4829 2475.5C22.4303 2475.5 0.499836 2453.57 0.499836 2426.52Z" stroke="#042433" stroke-width="6.875" stroke-miterlimit="8" fill="#002060" fill-rule="evenodd"/><g filter="url(#fx0)" transform="translate(812 21)"><g><path d="M19.7226 61.556C19.7226 38.4521 38.4518 19.7227 61.5554 19.7227L3478.89 19.7227C3501.99 19.7227 3520.72 38.4521 3520.72 61.556L3520.72 228.889C3520.72 251.993 3501.99 270.723 3478.89 270.723L61.5554 270.723C38.4518 270.723 19.7226 251.993 19.7226 228.889Z" fill="#FFFFFF" fill-rule="evenodd"/></g></g><path d="M822 72.8333C822 49.7294 840.729 30.9999 863.833 30.9999L4281.17 30.9999C4304.27 30.9999 4323 49.7294 4323 72.8333L4323 240.167C4323 263.27 4304.27 282 4281.17 282L863.833 282C840.729 282 822 263.27 822 240.167Z" fill="#FFFFFF" fill-rule="evenodd"/><g filter="url(#fx1)" transform="translate(812 354)"><g><path d="M19.7226 110.891C19.7226 60.5401 60.5399 19.7227 110.891 19.7227L643.555 19.7227C693.905 19.7227 734.723 60.5401 734.723 110.891L734.723 475.555C734.723 525.905 693.905 566.723 643.555 566.723L110.891 566.723C60.5399 566.723 19.7226 525.905 19.7226 475.555Z" fill="#FFFFFF" fill-rule="evenodd"/></g></g><g clip-path="url(#clip11)" filter="url(#fx2)" transform="translate(1098 553)"><g><path d="M22.5737 0.688965C19.0073 0.688965 15.8462-0.0607911 13.0903-1.5603 10.3345-3.05981 8.17977-5.31584 6.62622-8.32837 5.07267-11.3409 4.2959-15.1167 4.2959-19.6558 4.2959-24.1948 5.05916-27.9841 6.58569-31.0237 8.11222-34.0632 10.2467-36.3463 12.989-37.8728 15.7314-39.3993 18.9263-40.1626 22.5737-40.1626 25.6268-40.1626 28.3759-39.6628 30.821-38.6631 33.2662-37.6634 35.2183-36.1571 36.6772-34.1443 38.1362-32.1314 38.9062-29.585 38.9873-26.5049L32.3003-26.5049C32.1382-29.0446 31.2196-31.0439 29.5444-32.5029 27.8693-33.9619 25.5863-34.6914 22.6953-34.6914 18.8587-34.6914 15.9948-33.3743 14.1035-30.74 12.2122-28.1057 11.2666-24.411 11.2666-19.6558 11.2666-16.4946 11.6854-13.8131 12.5229-11.6111 13.3605-9.4091 14.6304-7.72046 16.3325-6.54517 18.0347-5.36987 20.1556-4.78223 22.6953-4.78223 25.5863-4.78223 27.9368-5.53198 29.7471-7.03149 31.5573-8.531 32.5029-10.7262 32.584-13.6172L39.271-13.6172C39.1899-10.429 38.4132-7.77449 36.9407-5.65356 35.4682-3.53263 33.4823-1.94531 30.9832-0.891602 28.484 0.162109 25.6808 0.688965 22.5737 0.688965Z" fill="#FFFFFF" transform="matrix(1 0 0 1 69.0831 121)"/></g></g><path d="M822 455.168C822 404.817 862.817 364 913.168 364L1445.83 364C1496.18 364 1537 404.817 1537 455.168L1537 819.832C1537 870.183 1496.18 911 1445.83 911L913.168 911C862.817 911 822 870.183 822 819.832Z" fill="#FFFFFF" fill-rule="evenodd"/><text fill="#FFFFFF" font-family="Aptos,Aptos_MSFontService,sans-serif" font-weight="400" font-size="83" transform="matrix(1 0 0 1 1157.36 664)">c</text><g filter="url(#fx3)" transform="translate(1591 354)"><g><path d="M19.7225 110.891C19.7225 60.5403 60.5401 19.7227 110.891 19.7227L642.554 19.7227C692.905 19.7227 733.723 60.5403 733.723 110.891L733.723 475.554C733.723 525.905 692.905 566.723 642.554 566.723L110.891 566.723C60.5401 566.723 19.7225 525.905 19.7225 475.554Z" fill="#FFFFFF" fill-rule="evenodd"/></g></g><g clip-path="url(#clip12)" filter="url(#fx4)" transform="translate(1876 553)"><g><path d="M22.5737 0.688965C19.0073 0.688965 15.8462-0.0607911 13.0903-1.5603 10.3345-3.05981 8.17977-5.31584 6.62622-8.32837 5.07267-11.3409 4.2959-15.1167 4.2959-19.6558 4.2959-24.1948 5.05916-27.9841 6.58569-31.0237 8.11222-34.0632 10.2467-36.3463 12.989-37.8728 15.7314-39.3993 18.9263-40.1626 22.5737-40.1626 25.6268-40.1626 28.3759-39.6628 30.821-38.6631 33.2662-37.6634 35.2183-36.1571 36.6772-34.1443 38.1362-32.1314 38.9062-29.585 38.9873-26.5049L32.3003-26.5049C32.1382-29.0446 31.2196-31.0439 29.5444-32.5029 27.8693-33.9619 25.5863-34.6914 22.6953-34.6914 18.8587-34.6914 15.9948-33.3743 14.1035-30.74 12.2122-28.1057 11.2666-24.411 11.2666-19.6558 11.2666-16.4946 11.6854-13.8131 12.5229-11.6111 13.3605-9.4091 14.6304-7.72046 16.3325-6.54517 18.0347-5.36987 20.1556-4.78223 22.6953-4.78223 25.5863-4.78223 27.9368-5.53198 29.7471-7.03149 31.5573-8.531 32.5029-10.7262 32.584-13.6172L39.271-13.6172C39.1899-10.429 38.4132-7.77449 36.9407-5.65356 35.4682-3.53263 33.4823-1.94531 30.9832-0.891602 28.484 0.162109 25.6808 0.688965 22.5737 0.688965Z" fill="#FFFFFF" transform="matrix(1 0 0 1 69.9685 121)"/></g></g><path d="M1601 455.169C1601 404.818 1641.82 364 1692.17 364L2223.83 364C2274.18 364 2315 404.818 2315 455.169L2315 819.831C2315 870.182 2274.18 911 2223.83 911L1692.17 911C1641.82 911 1601 870.182 1601 819.831Z" fill="#FFFFFF" fill-rule="evenodd"/><text fill="#FFFFFF" font-family="Aptos,Aptos_MSFontService,sans-serif" font-weight="400" font-size="83" transform="matrix(1 0 0 1 1936.25 664)">c</text><g filter="url(#fx5)" transform="translate(3136 354)"><g><path d="M19.7227 110.892C19.7227 60.5404 60.5403 19.7227 110.891 19.7227L1106.55 19.7227C1156.91 19.7227 1197.72 60.5404 1197.72 110.892L1197.72 475.554C1197.72 525.905 1156.91 566.723 1106.55 566.723L110.891 566.723C60.5403 566.723 19.7227 525.905 19.7227 475.554Z" fill="#FFFFFF" fill-rule="evenodd"/></g></g><g clip-path="url(#clip13)" filter="url(#fx6)" transform="translate(3654 553)"><g><path d="M22.5737 0.688965C19.0073 0.688965 15.8462-0.0607911 13.0903-1.5603 10.3345-3.05981 8.17977-5.31584 6.62622-8.32837 5.07267-11.3409 4.2959-15.1167 4.2959-19.6558 4.2959-24.1948 5.05916-27.9841 6.58569-31.0237 8.11222-34.0632 10.2467-36.3463 12.989-37.8728 15.7314-39.3993 18.9263-40.1626 22.5737-40.1626 25.6268-40.1626 28.3759-39.6628 30.821-38.6631 33.2662-37.6634 35.2183-36.1571 36.6772-34.1443 38.1362-32.1314 38.9062-29.585 38.9873-26.5049L32.3003-26.5049C32.1382-29.0446 31.2196-31.0439 29.5444-32.5029 27.8693-33.9619 25.5863-34.6914 22.6953-34.6914 18.8587-34.6914 15.9948-33.3743 14.1035-30.74 12.2122-28.1057 11.2666-24.411 11.2666-19.6558 11.2666-16.4946 11.6854-13.8131 12.5229-11.6111 13.3605-9.4091 14.6304-7.72046 16.3325-6.54517 18.0347-5.36987 20.1556-4.78223 22.6953-4.78223 25.5863-4.78223 27.9368-5.53198 29.7471-7.03149 31.5573-8.531 32.5029-10.7262 32.584-13.6172L39.271-13.6172C39.1899-10.429 38.4132-7.77449 36.9407-5.65356 35.4682-3.53263 33.4823-1.94531 30.9832-0.891602 28.484 0.162109 25.6808 0.688965 22.5737 0.688965Z" fill="#FFFFFF" transform="matrix(1 0 0 1 69.2419 121)"/></g></g><path d="M3146 455.169C3146 404.818 3186.82 364 3237.17 364L4232.83 364C4283.18 364 4324 404.818 4324 455.169L4324 819.831C4324 870.182 4283.18 911 4232.83 911L3237.17 911C3186.82 911 3146 870.182 3146 819.831Z" fill="#FFFFFF" fill-rule="evenodd"/><text fill="#FFFFFF" font-family="Aptos,Aptos_MSFontService,sans-serif" font-weight="400" font-size="83" transform="matrix(1 0 0 1 3713.52 664)">c</text><g filter="url(#fx7)" transform="translate(815 984)"><g><path d="M19.7227 119.418C19.7227 64.358 64.3578 19.7228 119.418 19.7228L3418.03 19.7228C3473.09 19.7228 3517.72 64.358 3517.72 119.418L3517.72 1343.03C3517.72 1398.09 3473.09 1442.72 3418.03 1442.72L119.418 1442.72C64.3578 1442.72 19.7227 1398.09 19.7227 1343.03Z" fill="#FFFFFF" fill-rule="evenodd"/></g></g><g clip-path="url(#clip14)" filter="url(#fx8)" transform="translate(2493 1621)"><g><path d="M22.5737 0.688965C19.0073 0.688965 15.8462-0.0607911 13.0903-1.5603 10.3345-3.05981 8.17977-5.31584 6.62622-8.32837 5.07267-11.3409 4.2959-15.1167 4.2959-19.6558 4.2959-24.1948 5.05916-27.9841 6.58569-31.0237 8.11222-34.0632 10.2467-36.3463 12.989-37.8728 15.7314-39.3993 18.9263-40.1626 22.5737-40.1626 25.6268-40.1626 28.3759-39.6628 30.821-38.6631 33.2662-37.6634 35.2183-36.1571 36.6772-34.1443 38.1362-32.1314 38.9062-29.585 38.9873-26.5049L32.3003-26.5049C32.1382-29.0446 31.2196-31.0439 29.5444-32.5029 27.8693-33.9619 25.5863-34.6914 22.6953-34.6914 18.8587-34.6914 15.9948-33.3743 14.1035-30.74 12.2122-28.1057 11.2666-24.411 11.2666-19.6558 11.2666-16.4946 11.6854-13.8131 12.5229-11.6111 13.3605-9.4091 14.6304-7.72046 16.3325-6.54517 18.0347-5.36987 20.1556-4.78223 22.6953-4.78223 25.5863-4.78223 27.9368-5.53198 29.7471-7.03149 31.5573-8.531 32.5029-10.7262 32.584-13.6172L39.271-13.6172C39.1899-10.429 38.4132-7.77449 36.9407-5.65356 35.4682-3.53263 33.4823-1.94531 30.9832-0.891602 28.484 0.162109 25.6808 0.688965 22.5737 0.688965Z" fill="#FFFFFF" transform="matrix(1 0 0 1 69.0891 120)"/></g></g><path d="M825 1093.7C825 1038.64 869.635 994 924.695 994L4223.3 994C4278.36 994 4323 1038.64 4323 1093.7L4323 2317.3C4323 2372.36 4278.36 2417 4223.3 2417L924.695 2417C869.635 2417 825 2372.36 825 2317.3Z" fill="#FFFFFF" fill-rule="evenodd"/><text fill="#FFFFFF" font-family="Aptos,Aptos_MSFontService,sans-serif" font-weight="400" font-size="83" transform="matrix(1 0 0 1 2552.37 1732)">c</text><g filter="url(#fx9)" transform="translate(2358 354)"><g><path d="M19.7229 110.891C19.7229 60.5403 60.5404 19.7227 110.891 19.7227L642.554 19.7227C692.905 19.7227 733.723 60.5403 733.723 110.891L733.723 475.554C733.723 525.905 692.905 566.723 642.554 566.723L110.891 566.723C60.5404 566.723 19.7229 525.905 19.7229 475.554Z" fill="#FFFFFF" fill-rule="evenodd"/></g></g><g clip-path="url(#clip15)" filter="url(#fx10)" transform="translate(2643 553)"><g><path d="M22.5737 0.688965C19.0073 0.688965 15.8462-0.0607911 13.0903-1.5603 10.3345-3.05981 8.17977-5.31584 6.62622-8.32837 5.07267-11.3409 4.2959-15.1167 4.2959-19.6558 4.2959-24.1948 5.05916-27.9841 6.58569-31.0237 8.11222-34.0632 10.2467-36.3463 12.989-37.8728 15.7314-39.3993 18.9263-40.1626 22.5737-40.1626 25.6268-40.1626 28.3759-39.6628 30.821-38.6631 33.2662-37.6634 35.2183-36.1571 36.6772-34.1443 38.1362-32.1314 38.9062-29.585 38.9873-26.5049L32.3003-26.5049C32.1382-29.0446 31.2196-31.0439 29.5444-32.5029 27.8693-33.9619 25.5863-34.6914 22.6953-34.6914 18.8587-34.6914 15.9948-33.3743 14.1035-30.74 12.2122-28.1057 11.2666-24.411 11.2666-19.6558 11.2666-16.4946 11.6854-13.8131 12.5229-11.6111 13.3605-9.4091 14.6304-7.72046 16.3325-6.54517 18.0347-5.36987 20.1556-4.78223 22.6953-4.78223 25.5863-4.78223 27.9368-5.53198 29.7471-7.03149 31.5573-8.531 32.5029-10.7262 32.584-13.6172L39.271-13.6172C39.1899-10.429 38.4132-7.77449 36.9407-5.65356 35.4682-3.53263 33.4823-1.94531 30.9832-0.891602 28.484 0.162109 25.6808 0.688965 22.5737 0.688965Z" fill="#FFFFFF" transform="matrix(1 0 0 1 69.9775 121)"/></g></g><path d="M2368 455.169C2368 404.818 2408.82 364 2459.17 364L2990.83 364C3041.18 364 3082 404.818 3082 455.169L3082 819.831C3082 870.182 3041.18 911 2990.83 911L2459.17 911C2408.82 911 2368 870.182 2368 819.831Z" fill="#FFFFFF" fill-rule="evenodd"/><text fill="#FFFFFF" font-family="Aptos,Aptos_MSFontService,sans-serif" font-weight="400" font-size="83" transform="matrix(1 0 0 1 2703.25 664)">c</text></g></svg>