<svg width="4403" height="2482" xmlns="http://www.w3.org/2000/svg" xmlns:xlink="http://www.w3.org/1999/xlink" xml:space="preserve" overflow="hidden"><defs><filter id="fx0" x="-10%" y="-10%" width="120%" height="120%" filterUnits="userSpaceOnUse" primitiveUnits="userSpaceOnUse"><feComponentTransfer color-interpolation-filters="sRGB"><feFuncR type="discrete" tableValues="0.65098 0.65098"/><feFuncG type="discrete" tableValues="0.65098 0.65098"/><feFuncB type="discrete" tableValues="0.65098 0.65098"/><feFuncA type="linear" slope="0.4" intercept="0"/></feComponentTransfer><feGaussianBlur stdDeviation="6.11111 6.11111"/></filter><filter id="fx1" x="-10%" y="-10%" width="120%" height="120%" filterUnits="userSpaceOnUse" primitiveUnits="userSpaceOnUse"><feComponentTransfer color-interpolation-filters="sRGB"><feFuncR type="discrete" tableValues="0.65098 0.65098"/><feFuncG type="discrete" tableValues="0.65098 0.65098"/><feFuncB type="discrete" tableValues="0.65098 0.65098"/><feFuncA type="linear" slope="0.4" intercept="0"/></feComponentTransfer><feGaussianBlur stdDeviation="6.11111 6.11111"/></filter><filter id="fx2" x="-10%" y="-10%" width="120%" height="120%" filterUnits="userSpaceOnUse" primitiveUnits="userSpaceOnUse"><feComponentTransfer color-interpolation-filters="sRGB"><feFuncR type="discrete" tableValues="0.65098 0.65098"/><feFuncG type="discrete" tableValues="0.65098 0.65098"/><feFuncB type="discrete" tableValues="0.65098 0.65098"/><feFuncA type="linear" slope="0.4" intercept="0"/></feComponentTransfer><feGaussianBlur stdDeviation="6.11111 6.11111"/></filter><clipPath id="clip3"><rect x="49" y="56" width="83" height="89"/></clipPath></defs><g transform="translate(3 3)"><rect x="0" y="0" width="4400" height="2475" fill="#F2F2F2"/><path d="M0.499836 49.4829C0.499836 22.4303 22.4303 0.499836 49.4829 0.499836L697.517 0.499836C724.57 0.499836 746.5 22.4303 746.5 49.4829L746.5 2426.52C746.5 2453.57 724.57 2475.5 697.517 2475.5L49.4829 2475.5C22.4303 2475.5 0.499836 2453.57 0.499836 2426.52Z" stroke="#042433" stroke-width="6.875" stroke-miterlimit="8" fill="#002060" fill-rule="evenodd"/><g filter="url(#fx0)" transform="translate(812 21)"><g><path d="M19.7226 61.556C19.7226 38.4521 38.4518 19.7227 61.5554 19.7227L3478.89 19.7227C3501.99 19.7227 3520.72 38.4521 3520.72 61.556L3520.72 228.889C3520.72 251.993 3501.99 270.723 3478.89 270.723L61.5554 270.723C38.4518 270.723 19.7226 251.993 19.7226 228.889Z" fill="#FFFFFF" fill-rule="evenodd"/></g></g><path d="M822 72.8333C822 49.7294 840.729 30.9999 863.833 30.9999L4281.17 30.9999C4304.27 30.9999 4323 49.7294 4323 72.8333L4323 240.167C4323 263.27 4304.27 282 4281.17 282L863.833 282C840.729 282 822 263.27 822 240.167Z" fill="#FFFFFF" fill-rule="evenodd"/><g filter="url(#fx1)" transform="translate(815 344)"><g><path d="M19.7227 109.258C19.7227 59.809 59.8088 19.7228 109.258 19.7228L3428.19 19.7228C3477.64 19.7228 3517.72 59.809 3517.72 109.258L3517.72 1993.19C3517.72 2042.64 3477.64 2082.72 3428.19 2082.72L109.258 2082.72C59.8088 2082.72 19.7227 2042.64 19.7227 1993.19Z" fill="#FFFFFF" fill-rule="evenodd"/></g></g><g clip-path="url(#clip3)" filter="url(#fx2)" transform="translate(2493 1301)"><g><path d="M22.5737 0.688965C19.0073 0.688965 15.8462-0.0607911 13.0903-1.5603 10.3345-3.05981 8.17977-5.31584 6.62622-8.32837 5.07267-11.3409 4.2959-15.1167 4.2959-19.6558 4.2959-24.1948 5.05916-27.9841 6.58569-31.0237 8.11222-34.0632 10.2467-36.3463 12.989-37.8728 15.7314-39.3993 18.9263-40.1626 22.5737-40.1626 25.6268-40.1626 28.3759-39.6628 30.821-38.6631 33.2662-37.6634 35.2183-36.1571 36.6772-34.1443 38.1362-32.1314 38.9062-29.585 38.9873-26.5049L32.3003-26.5049C32.1382-29.0446 31.2196-31.0439 29.5444-32.5029 27.8693-33.9619 25.5863-34.6914 22.6953-34.6914 18.8587-34.6914 15.9948-33.3743 14.1035-30.74 12.2122-28.1057 11.2666-24.411 11.2666-19.6558 11.2666-16.4946 11.6854-13.8131 12.5229-11.6111 13.3605-9.4091 14.6304-7.72046 16.3325-6.54517 18.0347-5.36987 20.1556-4.78223 22.6953-4.78223 25.5863-4.78223 27.9368-5.53198 29.7471-7.03149 31.5573-8.531 32.5029-10.7262 32.584-13.6172L39.271-13.6172C39.1899-10.429 38.4132-7.77449 36.9407-5.65356 35.4682-3.53263 33.4823-1.94531 30.9832-0.891602 28.484 0.162109 25.6808 0.688965 22.5737 0.688965Z" fill="#FFFFFF" transform="matrix(1 0 0 1 69.0891 121)"/></g></g><path d="M825 443.535C825 394.086 865.086 354 914.535 354L4233.46 354C4282.91 354 4323 394.086 4323 443.535L4323 2327.46C4323 2376.91 4282.91 2417 4233.46 2417L914.535 2417C865.086 2417 825 2376.91 825 2327.46Z" fill="#FFFFFF" fill-rule="evenodd"/><text fill="#FFFFFF" font-family="Aptos,Aptos_MSFontService,sans-serif" font-weight="400" font-size="83" transform="matrix(1 0 0 1 2552.37 1412)">c</text></g></svg>